<svg width="40"
    height="40"
    viewBox="0 0 40 40"
    xmlns="http://www.w3.org/2000/svg"
    class="social-link">
    <circle class="background" cx="20" cy="20" r="20"></circle>
    <path class="foreground" d="M13.8965 29.8745H9.36133V15.27H13.8965V29.8745ZM11.6265 13.2778C10.1763 13.2778 9 12.0767 9 10.6265C9 9.92988 9.27672 9.26183 9.76927 8.76927C10.2618 8.27672 10.9299 8 11.6265 8C12.323 8 12.9911 8.27672 13.4837 8.76927C13.9762 9.26183 14.2529 9.92988 14.2529 10.6265C14.2529 12.0767 13.0762 13.2778 11.6265 13.2778ZM30.8701 29.8745H26.3447V22.7651C26.3447 21.0708 26.3105 18.8979 23.9868 18.8979C21.6289 18.8979 21.2676 20.7388 21.2676 22.6431V29.8745H16.7373V15.27H21.0869V17.2622H21.1504C21.7559 16.1147 23.2349 14.9038 25.4414 14.9038C30.0312 14.9038 30.875 17.9263 30.875 21.8521V29.8745H30.8701Z"></path>
</svg>