<?xml version="1.0" standalone="no"?>
<!DOCTYPE svg PUBLIC "-//W3C//DTD SVG 20010904//EN"
 "http://www.w3.org/TR/2001/REC-SVG-20010904/DTD/svg10.dtd">
<svg version="1.0" xmlns="http://www.w3.org/2000/svg"
 width="500.000000pt" height="500.000000pt" viewBox="0 0 500.000000 500.000000"
 preserveAspectRatio="xMidYMid meet">

<g transform="translate(0.000000,500.000000) scale(0.100000,-0.100000)"
fill="#BC523C" stroke="none">
<path d="M2375 4994 c-632 -37 -1209 -296 -1647 -740 -201 -204 -340 -399
-463 -649 -181 -368 -258 -699 -258 -1105 0 -406 77 -737 258 -1105 242 -493
637 -888 1130 -1130 368 -181 699 -258 1105 -258 406 0 737 77 1105 258 493
242 888 637 1130 1130 181 368 258 699 258 1105 0 406 -77 737 -258 1105 -242
493 -637 888 -1130 1130 -276 136 -519 208 -815 244 -99 12 -328 20 -415 15z
m-515 -1374 l0 -80 -80 0 -80 0 0 80 0 80 80 0 80 0 0 -80z m1920 0 l0 -80
-80 0 -80 0 0 80 0 80 80 0 80 0 0 -80z m-2400 -1280 l0 -880 1200 0 1200 0 0
-80 0 -80 -1280 0 -1280 0 0 960 0 960 80 0 80 0 0 -880z m480 160 l0 -720
-80 0 -80 0 0 720 0 720 80 0 80 0 0 -720z m480 563 l0 -158 158 158 157 157
83 0 82 0 0 -157 0 -158 158 158 157 157 83 0 82 0 0 -720 0 -720 -80 0 -80 0
0 607 0 608 -160 -160 -160 -160 0 -447 0 -448 -80 0 -80 0 0 607 0 608 -160
-160 -160 -160 0 -447 0 -448 -80 0 -80 0 0 720 0 720 80 0 80 0 0 -157z
m1440 -563 l0 -720 -80 0 -80 0 0 720 0 720 80 0 80 0 0 -720z"/>
</g>
</svg>
